HIERARCHY
ROOT ui
{
	 OFFSET 0 0 0
	 CHANNELS 3 XPosition YPosition Z Position
	 EndSite
	 {
	 OFFSET 0 -1 0
	 }
}
ROOT li
{
	 OFFSET 0 0 0
	 CHANNELS 3 XPosition YPosition Z Position
	 EndSite
	 {
	 OFFSET 0 -1 0
	 }
}
ROOT ul
{
	 OFFSET 0 0 0
	 CHANNELS 3 XPosition YPosition Z Position
	 EndSite
	 {
	 OFFSET 0 -1 0
	 }
}
ROOT ll
{
	 OFFSET 0 0 0
	 CHANNELS 3 XPosition YPosition Z Position
	 EndSite
	 {
	 OFFSET 0 -1 0
	 }
}
ROOT tt
{
	 OFFSET 0 0 0
	 CHANNELS 3 XPosition YPosition Z Position
	 EndSite
	 {
	 OFFSET 0 -1 0
	 }
}
ROOT tb
{
	 OFFSET 0 0 0
	 CHANNELS 3 XPosition YPosition Z Position
	 EndSite
	 {
	 OFFSET 0 -1 0
	 }
}
ROOT td
{
	 OFFSET 0 0 0
	 CHANNELS 3 XPosition YPosition Z Position
	 EndSite
	 {
	 OFFSET 0 -1 0
	 }
}
ROOT v
{
	 OFFSET 0 0 0
	 CHANNELS 3 XPosition YPosition Z Position
	 EndSite
	 {
	 OFFSET 0 -1 0
	 }
}
ROOT bn
{
	 OFFSET 0 0 0
	 CHANNELS 3 XPosition YPosition Z Position
	 EndSite
	 {
	 OFFSET 0 -1 0
	 }
}
MOTION
Frames: 21
Frame Time: 0.002
0.06448226928710937	-0.0040199351310729985	0		0.637166015625	-2.703736572265625	0		-0.9758975830078125	-0.03786964416503906	0		-0.2642013854980469	-2.94195263671875	0		2.20045458984375	-1.861950927734375	0		3.4220576171875	-0.6788148803710937	0		4.62598193359375	-0.07753400421142578	0		5.9255498046875	0.3772923583984375	0		-0.34632403564453124	5.859267578125	0		
-0.01212958335876465	-0.003379488945007324	0		0.6013499755859375	-2.719505859375	0		-1.038393310546875	-0.02534896469116211	0		-0.21720135498046875	-2.97651708984375	0		2.2177578125	-1.867265380859375	0		3.43625390625	-0.6971200561523437	0		4.6083857421875	-0.07554777526855469	0		5.922326171875	0.3943085021972656	0		-0.3307332458496094	5.870015625	0		
-0.007675734996795655	4.718379974365234E-4	0		0.6266664428710937	-2.72487060546875	0		-0.9539241333007813	-0.020262903213500976	0		-0.2599058227539062	-2.983201171875	0		2.22289453125	-1.8924620361328126	0		3.40794189453125	-0.668008056640625	0		4.61185791015625	-0.0697688751220703	0		5.9255576171875	0.4146267395019531	0		-0.31511679077148436	5.87976416015625	0		
-0.004206130027770996	0.0033349668979644775	0		0.6049302368164062	-2.737773193359375	0		-1.0244317626953126	-0.014656497955322265	0		-0.1727696990966797	-3.00915625	0		2.218231689453125	-1.8995609130859374	0		3.40910498046875	-0.6951865234375	0		4.60737548828125	-0.06191225814819336	0		5.92587158203125	0.41425128173828124	0		-0.314568603515625	5.87966259765625	0		
0.06618211364746093	-0.004457449913024903	0		0.6601009521484374	-2.7624287109375	0		-0.9449459838867188	-0.012518814086914062	0		-0.1746111602783203	-3.03423681640625	0		2.218656494140625	-1.89970703125	0		3.420669677734375	-0.6834636840820313	0		4.5907177734375	-0.07393536376953125	0		5.9296953125	0.3964928894042969	0		-0.2960386352539062	5.87538720703125	0		
-0.03633052062988281	-0.002545820951461792	0		0.6294935913085937	-2.765237060546875	0		-0.9463947143554687	-0.004583213806152344	0		-0.1543935241699219	-3.054531005859375	0		2.219093505859375	-1.8998502197265625	0		3.4010419921875	-0.6924320068359375	0		4.58626806640625	-0.06607424926757813	0		5.9265361328125	0.41350732421875	0		-0.3446009521484375	5.8607744140625	0		
-0.009868096351623536	-0.0038987751007080076	0		0.6378065185546875	-2.776424560546875	0		-1.0018494262695312	0.0028895819187164306	0		-0.18918258666992188	-3.075279052734375	0		2.192542724609375	-1.8987225341796874	0		3.40150244140625	-0.6925927734375	0		4.5797998046875	-0.06018844985961914	0		5.92743115234375	0.37507058715820313	0		-0.3289197082519531	5.87053515625	0		
0.0017033330202102662	0.006900962829589844	0		0.6481195068359376	-2.786625732421875	0		-0.9183209228515625	0.008995974540710449	0		-0.14009449768066407	-3.107849609375	0		2.245096923828125	-1.88636865234375	0		3.41701171875	-0.68689501953125	0		4.5584013671875	-0.046146919250488284	0		5.932103515625	0.3901896667480469	0		-0.2923207092285156	5.87309423828125	0		
-0.0018921890258789063	0.002857311010360718	0		0.669423828125	-2.79592822265625	0		-0.92977734375	0.01904713249206543	0		-0.19772264099121092	-3.10935595703125	0		2.205549072265625	-1.8820958251953126	0		3.38873193359375	-0.6577531127929688	0		4.5608544921875	-0.04533081817626953	0		5.938859375	0.39489785766601565	0		-0.29473333740234375	5.87704541015625	0		
-0.004505507946014405	-1.8722499907016755E-4	0		0.6637041625976563	-2.804953857421875	0		-0.8713140258789063	0.023412647247314452	0		-0.10375005340576172	-3.149357666015625	0		2.20593359375	-1.882207275390625	0		3.359979736328125	-0.673595947265625	0		4.54229052734375	-0.04329341125488281	0		5.92346484375	0.39497271728515626	0		-0.294218505859375	5.87697607421875	0		
-0.004124221801757813	-2.5207701325416563E-4	0		0.6678919677734375	-2.820068359375	0		-0.9477398071289063	0.043125587463378905	0		-0.13762544250488282	-3.17008203125	0		2.20831494140625	-1.8793270263671875	0		3.357479736328125	-0.6606846923828125	0		4.5377509765625	-0.0353807258605957	0		5.923736328125	0.3946974182128906	0		-0.3419110107421875	5.8603935546875	0		
-0.007824027061462402	-0.004266974925994873	0		0.6511015014648438	-2.82896337890625	0		-0.8693733520507813	0.045308319091796875	0		-0.10258287048339844	-3.195482177734375	0		2.23254638671875	-1.8876529541015625	0		3.345860107421875	-0.6556700439453125	0		4.52115087890625	-0.02933373260498047	0		5.9239775390625	0.3944500427246094	0		-0.32737603759765627	5.87120361328125	0		
-4.6170398592948914E-4	0.0026186680793762207	0		0.6513561401367187	-2.8290166015625	0		-0.9299572143554687	0.05788293838500977	0		-0.16041001892089843	-3.20294677734375	0		2.24194287109375	-1.8748179931640625	0		3.3354736328125	-0.6226517333984375	0		4.51565283203125	-0.008380610466003418	0		5.92418603515625	0.39423333740234373	0		-0.3279934997558594	5.872173828125	0		
-2.197510004043579E-4	0.0025857410430908203	0		0.6994619750976563	-2.83953564453125	0		-0.8576383666992188	0.06514249420166016	0		-0.010523260116577149	-3.23547265625	0		2.242162109375	-1.8748778076171875	0		3.321619140625	-0.6315845947265625	0		4.5150244140625	0.004541586875915527	0		5.92435791015625	0.3940523681640625	0		-0.29460293579101565	5.87981494140625	0		
-0.0030622498989105224	-4.0493398904800415E-4	0		0.6426236572265625	-2.838994384765625	0		-0.937396484375	0.07092893981933594	0		-0.10244368743896484	-3.24257421875	0		2.25531005859375	-1.87705078125	0		3.34298876953125	-0.6128493041992188	0		4.506232421875	0.00656534481048584	0		5.920861328125	0.37843008422851565	0		-0.28024758911132813	5.89065673828125	0		
-0.002932774066925049	-4.1314399242401123E-4	0		0.6916289672851562	-2.84949658203125	0		-0.85420068359375	0.07709806823730468	0		-0.0036538441181182863	-3.2745693359375	0		2.258455078125	-1.8741064453125	0		3.3171748046875	-0.6066236572265625	0		4.47651318359375	0.02182159423828125	0		5.920953125	0.3783366088867188	0		-0.2810628662109375	5.89166064453125	0		
-0.03289175796508789	-0.003108380079269409	0		0.6315667724609375	-2.86089501953125	0		-0.9190474853515626	0.08575663757324219	0		-0.09264677429199218	-3.278674560546875	0		2.153650146484375	-1.860064208984375	0		3.288422607421875	-0.5883471069335937	0		4.47658251953125	0.021803125381469727	0		5.92100244140625	0.3782913818359375	0		-0.315021240234375	5.8860068359375	0		
0.0042162551879882815	0.006539074897766113	0		0.689566162109375	-2.861458984375	0		-0.9018782348632812	0.10160617065429688	0		0.003239582061767578	-3.290615966796875	0		2.099817626953125	-1.8435126953125	0		3.309419677734375	-0.5895478515625	0		4.46171337890625	0.0339586181640625	0		5.93248486328125	0.39358740234375	0		-0.27895758056640624	5.88966552734375	0		
1.3001300394535064E-4	0.0026108040809631346	0		0.6496009521484375	-2.85302783203125	0		-0.9047544555664062	0.11866709136962891	0		-0.005917325019836426	-3.301493896484375	0		2.149768310546875	-1.8439818115234374	0		3.286684326171875	-0.5582887573242188	0		4.4528173828125	0.04907818222045898	0		5.94029736328125	0.39344879150390627	0		-0.2809822998046875	5.891716796875	0		
3.2345000654459E-5	0.0026556050777435305	0		0.696385986328125	-2.865451416015625	0		-0.8327759399414062	0.12598988342285156	0		-0.013098752975463868	-3.310378662109375	0		2.115815673828125	-1.8295938720703124	0		3.24752978515625	-0.5638477783203125	0		4.4428701171875	0.06423017120361328	0		5.93659033203125	0.3763321533203125	0		-0.2820704345703125	5.89377099609375	0		
-0.033169063568115234	-0.0029571659564971925	0		0.6443150024414063	-2.85887255859375	0		-0.8338294067382812	0.1350537109375	0		-0.019300542831420898	-3.317261474609375	0		2.10856884765625	-1.8404593505859375	0		3.2445185546875	-0.5507506713867187	0		4.42373779296875	0.06549180603027344	0		5.92080517578125	0.37857550048828126	0		-0.3313905029296875	5.87831787109375	0		
